<?xml version="1.0" encoding="utf-8"?>
<!-- Generator: Adobe Illustrator 24.0.0, SVG Export Plug-In . SVG Version: 6.00 Build 0)  -->
<svg version="1.1" id="Layer_1" xmlns="http://www.w3.org/2000/svg" xmlns:xlink="http://www.w3.org/1999/xlink" x="0px" y="0px"
	 viewBox="0 0 100 100" style="enable-background:new 0 0 100 100;" xml:space="preserve">
<style type="text/css">
	.st0{fill:#FFFFFF;}
</style>
<title>menu-icon</title>
<path class="st0" d="M58.8,17.8c0,2.3-0.8,4.5-2.4,6.2c-1.7,1.8-4,2.7-6.4,2.6c-2.4,0.1-4.8-0.8-6.4-2.6c-1.6-1.7-2.4-3.9-2.4-6.2
	c0-2.3,0.8-4.5,2.4-6.2c1.7-1.8,4-2.7,6.4-2.6c2.4-0.1,4.8,0.8,6.4,2.6C58,13.3,58.8,15.5,58.8,17.8z"/>
<path class="st0" d="M58.8,50c0,2.3-0.8,4.5-2.4,6.2c-1.7,1.8-4,2.7-6.4,2.6c-2.4,0.1-4.8-0.8-6.4-2.6c-3.2-3.5-3.2-8.8,0-12.4
	c1.7-1.8,4-2.7,6.4-2.6c2.4-0.1,4.8,0.8,6.4,2.6C58,45.5,58.8,47.7,58.8,50z"/>
<path class="st0" d="M58.8,82.2c0,2.3-0.8,4.5-2.4,6.2c-1.7,1.8-4,2.7-6.4,2.6c-2.4,0.1-4.8-0.8-6.4-2.6c-3.2-3.5-3.2-8.8,0-12.4
	c1.7-1.8,4-2.7,6.4-2.6c2.4-0.1,4.8,0.8,6.4,2.6C58,77.7,58.8,80,58.8,82.2z"/>
</svg>
