<svg id="Layer_1" data-name="Layer 1" xmlns="http://www.w3.org/2000/svg" viewBox="0 0 77.4 77.4"><defs><style>.cls-1{fill:#fff;}</style></defs><title>plus-icon</title><path class="cls-1" d="M49.86,88.84A38.7,38.7,0,1,1,88.56,50.1,38.77,38.77,0,0,1,49.86,88.84Zm3.21-35.49c4.32,0,8.39,0,12.47,0,2.23,0,3.66-1.31,3.67-3.21s-1.43-3.19-3.67-3.2c-3.61,0-7.22,0-10.82,0H53.07V45.22c0-3.47,0-6.94,0-10.41a6.61,6.61,0,0,0-.22-1.94,3.19,3.19,0,0,0-3.33-2A3.12,3.12,0,0,0,46.68,34c-.06,3.79,0,7.59,0,11.38,0,.5,0,1-.08,1.58-4.23,0-8.31,0-12.38,0-2.23,0-3.67,1.3-3.67,3.2s1.43,3.19,3.66,3.21c3.61,0,7.22,0,10.83,0,.5,0,1,0,1.58.07,0,.57.06,1,.06,1.49,0,3.8,0,7.59,0,11.39a3.14,3.14,0,0,0,3.23,3.18A3.2,3.2,0,0,0,53,66.31c.07-1.26,0-2.52,0-3.79C53.08,59.53,53.07,56.54,53.07,53.35Z" transform="translate(-11.16 -11.44)"/></svg>