<svg xmlns="http://www.w3.org/2000/svg" version="1.1" xmlns:xlink="http://www.w3.org/1999/xlink" xmlns:svgjs="http://svgjs.com/svgjs" width="48" height="48"><svg id="SvgjsSvg1000" data-name="Layer 1" xmlns="http://www.w3.org/2000/svg" viewBox="0 0 48 48"><defs><style>.cls-1{fill:#6472f9;}</style></defs><title>favicon1</title><path class="cls-1" d="M39.65,38.14c0,2.11,0,4-.12,5.56s-.15,2.62-.19,3a1.22,1.22,0,0,1-.38.88A1.31,1.31,0,0,1,38,48H34.66a1.16,1.16,0,0,1-.82-.38,1.48,1.48,0,0,1-.44-.88L33.33,44a.21.21,0,0,0-.09-.19c-.06,0-.14,0-.22.06a9.43,9.43,0,0,1-3.92,3A12.39,12.39,0,0,1,24,48,15.54,15.54,0,0,1,8.38,32.4a15.2,15.2,0,0,1,2.08-7.81,15.65,15.65,0,0,1,5.69-5.68A15.19,15.19,0,0,1,24,16.79a15,15,0,0,1,7.59,2,15.89,15.89,0,0,1,5.59,5.37,15.12,15.12,0,0,1,2.3,7.49Q39.66,35.11,39.65,38.14Zm-11,2.28A9.36,9.36,0,0,0,32,37a9.25,9.25,0,0,0,1.23-4.68,8.82,8.82,0,0,0-1.27-4.64,9.36,9.36,0,0,0-3.38-3.35,9.07,9.07,0,0,0-4.64-1.23,8.8,8.8,0,0,0-4.58,1.26A9.6,9.6,0,0,0,16,27.75,9.19,9.19,0,0,0,16,37a9.6,9.6,0,0,0,3.38,3.38,9.19,9.19,0,0,0,9.29,0Z"></path><path class="cls-1" d="M14.11,7.94c2.82-.43,5.63-.86,8.45-1.26.27,0,.6.24.86.19A2.91,2.91,0,0,0,25,6.32,1.39,1.39,0,0,0,24.75,5a2.54,2.54,0,0,0-1.62-.06c-1.17.26-2.3.71-3.48.92-2.25.41-4.54.6-6.76,1.09-2,.43-3.5-.48-5.42-1.1.48-.21.75-.35,1-.46s.67-.22,1-.34Q16.26,2.62,23,.2A2.23,2.23,0,0,1,24.39.06C29.69,1.9,35,3.8,40.53,5.78L30.77,9.3c-2,.72-4,1.44-6,2.11a2.53,2.53,0,0,1-1.49.05c-3.07-1-6.12-2.15-9.18-3.24Z"></path><path class="cls-1" d="M34,16.44a1.25,1.25,0,0,1-.3.63A25.35,25.35,0,0,0,24,15.28a25.49,25.49,0,0,0-9.79,1.81A2.86,2.86,0,0,1,13.72,15c.18-1.78,0-3.59,0-5.6C17,10.54,20,11.65,23,12.67a3.19,3.19,0,0,0,1.86,0c3-1,6-2.12,9.23-3.27C34.11,11.85,34.22,14.15,34,16.44Z"></path><path class="cls-1" d="M13,17.59A6,6,0,0,1,13.36,19a2.82,2.82,0,0,1-.29,1.26c-.22.36-1,.32-1.26.14s-.4-1-.41-1.28a4.82,4.82,0,0,1,.45-1.6l-.08-4.33c0-1.58,0-3.16,0-4.74,0-.28.37-.54.56-.81.19.28.54.55.54.82Z"></path></svg><style>@media (prefers-color-scheme: light) { :root { filter: none; } }
</style></svg>