<svg xmlns="http://www.w3.org/2000/svg" viewBox="0 0 901.08 596.61"><defs><style>.cls-1{isolation:isolate;}.cls-2{fill:#feefdc;opacity:0.2;}.cls-3{fill:#fff;}.cls-4{fill:#258d8c;}.cls-5{fill:#49263e;}.cls-6{fill:#3a1f33;}.cls-7{fill:#e8f2fc;}.cls-8{fill:#21111d;}.cls-9{fill:#fe9f73;}.cls-10{fill:#3aa1c9;}.cls-11{fill:#4cb7d8;}.cls-12{fill:#683d46;}.cls-13{fill:#f07162;}.cls-14{fill:#e2f2f1;}.cls-15{fill:#ef3a4c;}.cls-16{fill:#f75553;}.cls-17{fill:#397fa1;}.cls-18{fill:#61a3c5;}.cls-19{fill:#f99247;}.cls-20,.cls-24{fill:#fecc86;}.cls-21{fill:#f3fffe;}.cls-22{fill:#ff424d;}.cls-23{fill:#f46e6e;}.cls-24{opacity:0.3;mix-blend-mode:multiply;}.cls-25{opacity:0.5;}.cls-26{fill:#7fc6a6;}.cls-27{fill:#b9edd6;}.cls-28{fill:#aac9f8;}.cls-29{fill:#febac7;}.cls-30{fill:#5089a0;}.cls-31{fill:#fbfdfc;}</style></defs><title>hero-img</title><g class="cls-1"><g id="Layer_1" data-name="Layer 1"><path class="cls-2" d="M154.43,543.38c22.39-47.41,18.19-45,7.7-87.86S132.74,299.36,185.92,206.3s121-105,153.92-93.75S399.32,141.93,456,114,652.59,3.4,756.15,51.68s60.63,129,97,163.23,122,43.17,148.57,126.43-17.49,266.2-117.55,277.23l-698.26,4.74S132,590.78,154.43,543.38Z" transform="translate(-129.46 -26.69)"/><path class="cls-3" d="M870.74,323.13c10,0,33.53.32,53.82,3.19a14.33,14.33,0,0,0,16.34-13.61c.11-3.47-.9-7.57-3.86-12.31-11.38-18.28-33.84-2.71-34.14,6.23,0,0-3.59-13.68-16.93-12.08S876.2,316,876.2,316s-4.21-1.14-7.28.71A3.48,3.48,0,0,0,870.74,323.13Z" transform="translate(-129.46 -26.69)"/><path class="cls-4" d="M861.44,619.46c3-2.92,26.11-43.88,42.12-22.81,0,0,26.18-59.39,59.33-47.76,0,0,21.13,12.06,5.78,42.12,0,0,51.16-3.21,50.5,28.45Z" transform="translate(-129.46 -26.69)"/><path d="M940.61,555.8a.25.25,0,0,1-.2-.1.26.26,0,0,1,0-.36c.26-.2,6.39-4.92,12-5.58a.26.26,0,0,1,.29.22.25.25,0,0,1-.23.29c-5.46.65-11.67,5.43-11.74,5.48A.28.28,0,0,1,940.61,555.8Z" transform="translate(-129.46 -26.69)"/><path d="M940.61,558.78a.28.28,0,0,1-.2-.1.26.26,0,0,1,0-.36,31.47,31.47,0,0,1,9.61-4.91.26.26,0,1,1,.14.5,30.55,30.55,0,0,0-9.42,4.81A.27.27,0,0,1,940.61,558.78Z" transform="translate(-129.46 -26.69)"/><ellipse class="cls-4" cx="994.45" cy="542.26" rx="16.63" ry="8.93" transform="translate(-192.19 922.19) rotate(-49.64)"/><ellipse class="cls-4" cx="1000.64" cy="567.62" rx="9.85" ry="5.29" transform="translate(-209.34 935.84) rotate(-49.64)"/><path class="cls-3" d="M464.34,202.83c21.31-1.69,73.3-5.07,104.69-.72a5,5,0,0,0,4.48-8.17c-2.17-2.49-6-4.56-12.7-4.79,0,0,5.91-29.15-22.26-31.62-28.94-2.53-29,28.07-29,28.07s-17.06-15.88-25.06,4.06c0,0-17.93-7.63-25.93,2.15A6.78,6.78,0,0,0,464.34,202.83Z" transform="translate(-129.46 -26.69)"/><rect class="cls-5" x="383.09" y="435.98" width="72.5" height="151.9"/><path class="cls-5" d="M767.15,517.88V309.8a17.89,17.89,0,0,0-17.9-17.9H345.8a17.89,17.89,0,0,0-17.9,17.9V517.88Z" transform="translate(-129.46 -26.69)"/><path class="cls-6" d="M327.9,517.88v33.35c0,6.93,4.58,12.55,10.23,12.55H756.91c5.66,0,10.24-5.62,10.24-12.55V517.88Z" transform="translate(-129.46 -26.69)"/><path class="cls-7" d="M756.87,508.84V310.35a9.6,9.6,0,0,0-9.76-9.42H347.94a9.6,9.6,0,0,0-9.76,9.42V508.84Z" transform="translate(-129.46 -26.69)"/><path class="cls-6" d="M646.87,618.9c1.23-7.17-3.59-13-10.77-13H461.62c-7.18,0-14,5.82-15.23,13H646.87Z" transform="translate(-129.46 -26.69)"/><path class="cls-8" d="M756.91,564.31H338.13c-5.93,0-10.76-5.87-10.76-13.08V309.8a18.45,18.45,0,0,1,18.43-18.43v1.05a17.4,17.4,0,0,0-17.38,17.38V551.23c0,6.63,4.36,12,9.71,12H756.91Z" transform="translate(-129.46 -26.69)"/><rect class="cls-8" x="735.22" y="533.35" width="17.14" height="1.05" transform="translate(-253.05 800.25) rotate(-54.34)"/><rect class="cls-8" x="735.37" y="540.12" width="16.83" height="1.05" transform="translate(-262.31 791.46) rotate(-53.58)"/><rect class="cls-8" x="527.45" y="570.87" width="10.03" height="1.05" transform="translate(-357.28 723.49) rotate(-60.25)"/><rect class="cls-8" x="528.61" y="576.38" width="8.89" height="1.05" transform="translate(-363.73 718.08) rotate(-59.6)"/><path class="cls-9" d="M533.39,290.63s3.36-12.55,6.42-13.87,6.5.89,6.5.89,3.28-4.48,5.51-4A3.59,3.59,0,0,1,554.6,276s4,.42,4.36,3.67c0,0,3.11.76,3.07,3.31,0,0,1.6.73,1.5,3.82,0,0-5.34,10.43-13.18,14.13S533.39,290.63,533.39,290.63Z" transform="translate(-129.46 -26.69)"/><path class="cls-10" d="M462.25,508.84l.93-88.83-2-11.41L412.71,426s1.49,37.55,4.64,82.84Z" transform="translate(-129.46 -26.69)"/><path class="cls-11" d="M425,508.84l5.44-62.66,9.22-45.73L377,427.11s-.44,36.89.32,81.73Z" transform="translate(-129.46 -26.69)"/><polygon class="cls-12" points="390.5 200.86 441.48 285.78 437.23 289.01 396.86 214.16 390.5 200.86"/><path class="cls-9" d="M545.93,277.38a20.37,20.37,0,0,1,3.61-3c1.35-.7,9.42,14.14,9.42,14.14l1.17,3.67s-1,1.94-1.7,1.86a11.66,11.66,0,0,1-2.69-1.62l-.53-2-.81-.23-1.06-1-.53-1.6-1.13.51-1.61-.64-.74-1.5-.32-.14-4.78-7.69Z" transform="translate(-129.46 -26.69)"/><path class="cls-13" d="M548.87,286.08a5.4,5.4,0,0,1-2.38-1,13.6,13.6,0,0,0-1.85-1,4.29,4.29,0,0,0-2.75-.42.27.27,0,0,1-.34-.14.27.27,0,0,1,.14-.34s1-.42,3.14.41a13.61,13.61,0,0,1,1.93,1c1.33.8,2.17,1.26,2.74.63a2.46,2.46,0,0,0,.66-2c-.15-1.59-1.65-3.62-4-5.43a5.66,5.66,0,0,0-5.59-1.08.26.26,0,0,1-.34-.13.26.26,0,0,1,.13-.35,6.2,6.2,0,0,1,6.12,1.14c2.51,1.93,4,4,4.21,5.8a2.94,2.94,0,0,1-.79,2.36A1.32,1.32,0,0,1,548.87,286.08Z" transform="translate(-129.46 -26.69)"/><path class="cls-13" d="M549.76,281.61a.26.26,0,0,1-.18-.07.27.27,0,0,1,0-.37l4.84-5.32a.26.26,0,1,1,.39.35L550,281.53A.27.27,0,0,1,549.76,281.61Z" transform="translate(-129.46 -26.69)"/><path class="cls-13" d="M555.06,290.59a1.67,1.67,0,0,1-1-.37,2.55,2.55,0,0,1-1.21-2.69.27.27,0,0,1,.32-.2.26.26,0,0,1,.2.31,2.06,2.06,0,0,0,1,2.15,1.21,1.21,0,0,0,1,.24c2.6-.49,6.42-7.1,6.46-7.16a.27.27,0,0,1,.36-.1.26.26,0,0,1,.1.36c-.16.28-4,6.88-6.82,7.42A2.45,2.45,0,0,1,555.06,290.59Z" transform="translate(-129.46 -26.69)"/><path class="cls-13" d="M551.55,288.28a2.36,2.36,0,0,1-1.49-.49,3.19,3.19,0,0,1-1-2.05.25.25,0,0,1,.24-.28.26.26,0,0,1,.28.24,2.7,2.7,0,0,0,.83,1.68,2,2,0,0,0,1.55.34c1.9-.26,5.55-6,6.79-8.16a.27.27,0,0,1,.36-.1.27.27,0,0,1,.1.36c-.19.33-4.63,8.07-7.18,8.42A2.53,2.53,0,0,1,551.55,288.28Z" transform="translate(-129.46 -26.69)"/><path class="cls-14" d="M528.38,287.74l1.89-2.37s16.8,4.72,22.89,18.49l-2.66,3.59S538.21,292.12,528.38,287.74Z" transform="translate(-129.46 -26.69)"/><path class="cls-15" d="M468.41,432.64l.3-.4-1.61-90.4s29.73,19.94,38.64,20.32,45.76-54.3,45.76-54.3c-7.77-17.82-24.12-20.29-24.12-20.29L497,320.92l-35.64-32.33c-4.75-2.89-41.28-3.51-41.28-3.51s-41.59-.95-46.34,1.94-22.23,50.4-24.95,72,0,35.51,16.47,38.06l6,.13.47,35.47s33.18,7.46,96.74,0Z" transform="translate(-129.46 -26.69)"/><rect class="cls-5" x="284.56" y="320.66" width="44.37" height="56.13" rx="11.97"/><path class="cls-14" d="M447.47,345.23H426.8a2.12,2.12,0,0,0-2.12,2.12h24.91A2.12,2.12,0,0,0,447.47,345.23Z" transform="translate(-129.46 -26.69)"/><path class="cls-9" d="M459.45,376.25c4.8-4.22-.22-4.93-.22-4.93,2.34-2.53,1.79-3.71.93-4.26a2.38,2.38,0,0,0-2.11-.17c-2.21.86-8.93,3.49-13,5.39-2.92-.21-2-5.13-.69-7.65.68-1.3.72-3.44-2.44-1.28-2.59,1.76-6.48,7.58-6.48,7.58l-16.27-1.57,2.42,22.42s18.57-.26,21.37-.28,12.17-3.21,15-5.67c5.14-4.47,1.91-4.7,1.91-4.7C464.74,376,459.45,376.25,459.45,376.25Z" transform="translate(-129.46 -26.69)"/><path class="cls-13" d="M453.35,375a.33.33,0,0,1-.15-.64A41.55,41.55,0,0,0,459,371a.34.34,0,0,1,.38.56,42.63,42.63,0,0,1-6,3.4Z" transform="translate(-129.46 -26.69)"/><path class="cls-13" d="M453.69,379.27a.34.34,0,0,1-.12-.66,20.54,20.54,0,0,0,5.69-2.63.34.34,0,1,1,.39.55,20.93,20.93,0,0,1-5.9,2.73Z" transform="translate(-129.46 -26.69)"/><path class="cls-13" d="M454.81,384.06a.33.33,0,0,1-.34-.24.33.33,0,0,1,.22-.42,17.88,17.88,0,0,0,4.94-2.54.35.35,0,0,1,.48.07.34.34,0,0,1-.07.47,18.53,18.53,0,0,1-5.16,2.64Z" transform="translate(-129.46 -26.69)"/><polygon class="cls-8" points="250.86 338.46 250.18 337.65 256.81 332.06 259.33 301.35 260.38 301.44 257.82 332.58 250.86 338.46"/><path class="cls-8" d="M371.19,397.69l-6.05-.13c-8.08-1.25-13.26-5.26-15.84-12.24-2.23-6.06-2.57-14.45-1.07-26.41l1,.13c-3.07,24.37,1.57,35.23,16,37.47l6,.13Z" transform="translate(-129.46 -26.69)"/><path class="cls-14" d="M429.41,364h3.27s3.48,22.38-1.27,32.65h-4.07S432.08,375.67,429.41,364Z" transform="translate(-129.46 -26.69)"/><path class="cls-15" d="M412.32,360.65l16.37,1s3.31,10.44-.67,31.6c-.38,2.06-1.2,5.57-1.2,5.57s-16.62,1.33-19.23-4.07c-1.63-3.39,2-18,2-18Z" transform="translate(-129.46 -26.69)"/><path class="cls-8" d="M427.23,399.4l-56-1.71,0-1.05,55.2,1.69c.78-3.27,5.84-25.25,1.9-36.13l-41.58-2.67.06-1,42.26,2.7.12.32c4.59,11.89-1.58,36.44-1.85,37.48Z" transform="translate(-129.46 -26.69)"/><path class="cls-8" d="M497.33,329.84l-.87-8.67L462,289.86c-2.53-2.29-7.45-2.32-7.5-2.32v-1.05h0c.22,0,5.37,0,8.2,2.6l34.81,31.58.91,9.06Z" transform="translate(-129.46 -26.69)"/><path class="cls-8" d="M497.35,321.27l-.78-.7L527.19,287l.28,0c.16,0,16.34,2.86,24.5,20.59l-1,.44c-7.34-15.95-21.32-19.49-23.45-19.94Z" transform="translate(-129.46 -26.69)"/><path class="cls-14" d="M439.76,285.8c-10-.56-19.72-.72-19.72-.72s-8.05-.19-17.47-.14a.86.86,0,0,0,0,.16,18.61,18.61,0,0,0,37.2.7Z" transform="translate(-129.46 -26.69)"/><path class="cls-8" d="M428.67,436.28h-.92v-1c13.13.14,36.52-2.61,40.11-3.05l-1.3-99,1.05,0,1.32,100-.47.06C468.21,433.19,443.07,436.28,428.67,436.28Z" transform="translate(-129.46 -26.69)"/><path class="cls-8" d="M410.07,304.69a24.82,24.82,0,0,1-10.8-14.36l1-.29a23.77,23.77,0,0,0,10.35,13.76Z" transform="translate(-129.46 -26.69)"/><path class="cls-9" d="M414.1,247.39s7.42-3.15,14-.89a9.47,9.47,0,0,1,6.34,9v3.94l-20.28-8.66s-3.21,1.51-3,1.05S414.1,247.39,414.1,247.39Z" transform="translate(-129.46 -26.69)"/><path class="cls-9" d="M434.44,255v16.62s.25,5.93-4.95,6.68l1,7.92a6.18,6.18,0,0,1-4.23,6.66,16.11,16.11,0,0,1-4.9.76c-5.94,0-9.16-4.46-9.65-6.68s1-12.87,1-12.87l-.18-5.23.67-20.26Z" transform="translate(-129.46 -26.69)"/><path class="cls-8" d="M420.1,262.86a.23.23,0,0,1-.17-.07.25.25,0,0,1,0-.35s3.44-3.51,6.55-1a.24.24,0,0,1,0,.35.25.25,0,0,1-.35,0c-2.75-2.22-5.75.83-5.88,1A.24.24,0,0,1,420.1,262.86Z" transform="translate(-129.46 -26.69)"/><path class="cls-8" d="M430.3,261.38a.23.23,0,0,1-.18-.09.25.25,0,0,1,0-.35c.1-.08,2.46-2.1,3.95-.82a.24.24,0,0,1,0,.35.25.25,0,0,1-.35,0c-1.17-1-3.28.81-3.3.83A.27.27,0,0,1,430.3,261.38Z" transform="translate(-129.46 -26.69)"/><path d="M425.11,263.86a.74.74,0,0,1-.74.74.74.74,0,1,1,0-1.48A.74.74,0,0,1,425.11,263.86Z" transform="translate(-129.46 -26.69)"/><path d="M433,263.12a.74.74,0,0,1-.74.74.74.74,0,1,1,0-1.48A.74.74,0,0,1,433,263.12Z" transform="translate(-129.46 -26.69)"/><path class="cls-8" d="M414.1,247.14s-6.28-.31-7.88,5.19,1.13,8.41,1.18,10-1.06,12.69,6.7,11.86L416.2,256l-2.7-7.27Z" transform="translate(-129.46 -26.69)"/><circle class="cls-9" cx="414.52" cy="263.6" r="4.45" transform="translate(-194.45 343.63) rotate(-45)"/><path class="cls-13" d="M414.19,266.33a1.84,1.84,0,0,1-1.74-1.39,1.73,1.73,0,0,1,.7-2,2.1,2.1,0,0,1,2.34.08,2,2,0,0,0-.9-1.1,2.76,2.76,0,0,0-2-.12.12.12,0,0,1-.15-.08.12.12,0,0,1,.07-.16,3,3,0,0,1,2.18.15,2.37,2.37,0,0,1,1.13,1.62l.11.43-.32-.31a1.91,1.91,0,0,0-2.35-.3,1.52,1.52,0,0,0-.6,1.75,1.6,1.6,0,0,0,1.51,1.22h0a.12.12,0,0,1,.12.12.12.12,0,0,1-.12.12Z" transform="translate(-129.46 -26.69)"/><path class="cls-13" d="M417.45,273.28s.34,9.94,12.76,10.89l-.72-5.84S421.44,279.94,417.45,273.28Z" transform="translate(-129.46 -26.69)"/><path class="cls-8" d="M435.3,268.85s1.62,11.9-6.28,12.32c-11.3.61-12.4-5.85-13.07-11.12l-.11-10.9.36-3.16h0a5.58,5.58,0,0,1,1.39,3.24c.24,2.61.82,9.65,1.47,10C420,269.63,433.54,267.7,435.3,268.85Z" transform="translate(-129.46 -26.69)"/><path class="cls-13" d="M427.73,268.87a.12.12,0,0,1-.12-.09.12.12,0,0,1,.08-.15l2.48-.82-.79-5.84a.13.13,0,1,1,.25,0l.81,6-2.68.88Z" transform="translate(-129.46 -26.69)"/><polygon class="cls-9" points="283.02 248.81 283.89 240.43 285.97 240.66 285.97 249.05 283.02 248.81"/><path class="cls-8" d="M415.27,247s-1.46,3.48.93,9.28-6.13-2.17-6.13-2.17S410.66,245.6,415.27,247Z" transform="translate(-129.46 -26.69)"/><path class="cls-13" d="M424.85,271.41a4,4,0,0,0,4.76,1.35.18.18,0,0,0,.08-.23.17.17,0,0,0-.23-.09,3.59,3.59,0,0,1-4.34-1.24,1.13,1.13,0,0,0-.1-.13.18.18,0,0,0-.24,0,.17.17,0,0,0,0,.24A1.71,1.71,0,0,0,424.85,271.41Z" transform="translate(-129.46 -26.69)"/><path class="cls-13" d="M558.73,294.22h0a4.36,4.36,0,0,1-3.05-1.68,3.07,3.07,0,0,1-.46-2.22.25.25,0,0,1,.31-.19.26.26,0,0,1,.2.31,2.57,2.57,0,0,0,.39,1.82,3.91,3.91,0,0,0,2.7,1.44.26.26,0,0,1,0,.52Z" transform="translate(-129.46 -26.69)"/><path class="cls-8" d="M757.4,509.37H338.18v-1.05H756.35v-198a9.08,9.08,0,0,0-9.24-8.89v-1a10.13,10.13,0,0,1,10.29,9.94Z" transform="translate(-129.46 -26.69)"/><path class="cls-8" d="M416.2,256.25s18.91-1.12,20.08-5.55-3.28-4.55-3.28-4.55.83-6.3-4.88-4.43-16.3,1.62-19.28,6.91S416.2,256.25,416.2,256.25Z" transform="translate(-129.46 -26.69)"/><path class="cls-16" d="M486.67,445l-4.56,3.33a1.58,1.58,0,0,0,.94,2.85,1.52,1.52,0,0,0,.92-.31l3.64-2.66,3.21,10.93a1.58,1.58,0,0,0,1.51,1.13,1.39,1.39,0,0,0,.44-.07,1.57,1.57,0,0,0,1.07-2l-3.52-12,4.83-3.53,5.72,7.47a1.58,1.58,0,0,0,2.5-1.92l-5.68-7.41,3.08-2.25a1.57,1.57,0,0,0-1.86-2.54l-3.13,2.29L485.15,424.5a2.23,2.23,0,0,0-3.91,2Zm6.57-4.8-3.86,2.82-3.74-12.74Z" transform="translate(-129.46 -26.69)"/><path class="cls-4" d="M503.6,413.63c1.11,0,1.4-.64,2.38-2.75l.38-.81,2.54,8.71c0,.09-.06.19-.1.28a1.75,1.75,0,0,0-.12.32c-.63,1.7-1.29,3.33-1.94,4.79a1.59,1.59,0,0,0,.8,2.08,1.63,1.63,0,0,0,.64.13,1.58,1.58,0,0,0,1.44-.93c.17-.39.43-1,.73-1.7l3.71,12.69a1.58,1.58,0,0,0,1.51,1.14,1.39,1.39,0,0,0,.44-.07,1.57,1.57,0,0,0,1.07-1.95l-.33-1.13c2.92-1.5,10.09-5.67,12.14-11.35a8.9,8.9,0,0,0-.4-7.21,7.17,7.17,0,0,0-5.37-4.31c-3.27-.51-6.85,1.33-9.58,3.28,1.54-5.28,2.49-11,.51-13.8a3.35,3.35,0,0,0-3.08-1.61c-1.4.13-2.68,1.24-3.88,2.87a1.54,1.54,0,0,0-1.45-.3,1.57,1.57,0,0,0-1.07,1.95l.49,1.66c-.67,1.25-1.31,2.59-1.93,3.94-.26.56-.55,1.17-.69,1.44a1.57,1.57,0,0,0,1.16,2.64Zm19,1a4.13,4.13,0,0,1,3,2.59,5.8,5.8,0,0,1,.27,4.75c-1.55,4.31-7.25,7.81-10.08,9.33l-3.38-11.58C514.92,417.54,519.43,414.16,522.64,414.67Zm-11.42-12.1a1.3,1.3,0,0,1,.27.29c1.12,1.59.48,5.88-.86,10.61L508.45,406C510,403.29,510.81,402.65,511.22,402.57Z" transform="translate(-129.46 -26.69)"/><path class="cls-17" d="M550.84,431.62a28.67,28.67,0,0,0,5.85-.66,1.57,1.57,0,1,0-.65-3.08c-7.35,1.54-12,.12-13.87-4.22-3.06-7.18,2.11-19.38,5.76-21.86a5.35,5.35,0,0,1,4.37-1.09c2.52.64,4,3.55,4.06,3.6a1.57,1.57,0,0,0,2.81-1.41c-.08-.17-2.14-4.22-6.07-5.24a8.34,8.34,0,0,0-7,1.54c-5.07,3.45-10.38,17.46-6.87,25.69C540.67,428.16,543.81,431.62,550.84,431.62Z" transform="translate(-129.46 -26.69)"/><path class="cls-18" d="M527,454.65l-33.45,23-1.36,13.66-6.88-9.69-8.44,6.06a1.57,1.57,0,0,0,1.83,2.56l5.87-4.21,9.91,13.95,2.06-20.56,32.24-22.13a1.57,1.57,0,1,0-1.78-2.59Z" transform="translate(-129.46 -26.69)"/><path class="cls-16" d="M573.76,464.71a1.56,1.56,0,0,0-2-.87l-29.07,11.82a1.57,1.57,0,0,0,.59,3,1.52,1.52,0,0,0,.59-.12l29.08-11.81A1.58,1.58,0,0,0,573.76,464.71Z" transform="translate(-129.46 -26.69)"/><circle class="cls-16" cx="426.19" cy="436.58" r="2.64"/><path class="cls-16" d="M560.93,477.12a2.64,2.64,0,1,0,2.65,2.64A2.64,2.64,0,0,0,560.93,477.12Z" transform="translate(-129.46 -26.69)"/><path class="cls-9" d="M547.11,387.06a1.6,1.6,0,0,0,1.09.44,1.57,1.57,0,0,0,1.14-.48l8-8.27,8,8.27a1.57,1.57,0,0,0,1.14.48,1.57,1.57,0,0,0,1.13-2.67l-8-8.35,8-8.35a1.58,1.58,0,1,0-2.27-2.19l-8,8.27-8-8.27a1.58,1.58,0,0,0-2.27,2.19l8,8.35-8,8.35A1.59,1.59,0,0,0,547.11,387.06Z" transform="translate(-129.46 -26.69)"/><polygon class="cls-4" points="114.55 453.38 103.9 453.38 103.2 453.38 92.55 453.38 83.69 580.7 103.2 580.7 103.9 580.7 123.41 580.7 114.55 453.38"/><path class="cls-19" d="M87.67,440.55h31.56a0,0,0,0,1,0,0v5.91a9.48,9.48,0,0,1-9.48,9.48H97.15a9.48,9.48,0,0,1-9.48-9.48v-5.91A0,0,0,0,1,87.67,440.55Z"/><path class="cls-8" d="M239.29,483.16H222.1a5.51,5.51,0,0,1-5.5-5.5V467.24h1.05v10.42a4.46,4.46,0,0,0,4.45,4.45h17.19Z" transform="translate(-129.46 -26.69)"/><circle class="cls-20" cx="232.68" cy="408.78" r="66.86" transform="translate(-350.36 257.56) rotate(-45)"/><circle class="cls-14" cx="232.68" cy="408.78" r="57.68" transform="translate(-336.23 549.81) rotate(-81.24)"/><path class="cls-8" d="M232.68,476.16a67.38,67.38,0,1,1,46.53-116.11l-.72.76a66.33,66.33,0,1,0-.33,96.26l.72.76A67.14,67.14,0,0,1,232.68,476.16Z" transform="translate(-129.46 -26.69)"/><ellipse class="cls-21" cx="257.71" cy="382.55" rx="10.35" ry="21.67" transform="translate(-324.48 267.58) rotate(-45)"/><rect class="cls-8" x="157.59" y="542.15" width="120.39" height="1.05" transform="translate(-468.5 694.51) rotate(-85.91)"/><path class="cls-8" d="M197.18,373.65l-.83-.64c.08-.1,8.19-10.44,20.51-13.1l.22,1C205.14,363.51,197.25,373.55,197.18,373.65Z" transform="translate(-129.46 -26.69)"/><path class="cls-8" d="M200.46,380.11l-.83-.65c.08-.1,8.19-10.44,20.52-13.09l.22,1C208.42,370,200.54,380,200.46,380.11Z" transform="translate(-129.46 -26.69)"/><path class="cls-19" d="M38.95,563.73H180.73a0,0,0,0,1,0,0v28.48a0,0,0,0,1,0,0H29.29a0,0,0,0,1,0,0V573.4A9.66,9.66,0,0,1,38.95,563.73Z"/><rect class="cls-20" x="41.18" y="563.73" width="1.87" height="14.24"/><rect class="cls-20" x="60.65" y="563.73" width="1.87" height="14.24"/><rect class="cls-20" x="50.98" y="563.73" width="1.87" height="8.65"/><rect class="cls-20" x="81.94" y="563.73" width="1.87" height="14.24"/><rect class="cls-20" x="72.26" y="563.73" width="1.87" height="8.65"/><rect class="cls-20" x="103.22" y="563.73" width="1.87" height="14.24"/><rect class="cls-20" x="93.54" y="563.73" width="1.87" height="8.65"/><rect class="cls-20" x="124.5" y="563.73" width="1.87" height="14.24"/><rect class="cls-20" x="114.82" y="563.73" width="1.87" height="8.65"/><rect class="cls-20" x="145.78" y="563.73" width="1.87" height="14.24"/><rect class="cls-20" x="136.1" y="563.73" width="1.87" height="8.65"/><path class="cls-20" d="M346.68,431.83l.1,186.94,130.27.13ZM365,494.29,435.9,597.08,364.84,597Z" transform="translate(-129.46 -26.69)"/><rect class="cls-19" x="354.51" y="448.04" width="1.67" height="10.14" transform="translate(394.86 -124.06) rotate(55.17)"/><rect class="cls-19" x="368.02" y="467.39" width="1.67" height="10.02" transform="translate(416.5 -126.87) rotate(55.17)"/><rect class="cls-19" x="363.63" y="459.22" width="1.67" height="5.01" transform="translate(405.86 -127.85) rotate(55.17)"/><rect class="cls-19" x="381.71" y="487.05" width="1.67" height="10.03" transform="translate(438.52 -129.68) rotate(55.17)"/><rect class="cls-19" x="377.33" y="478.88" width="1.67" height="5.03" transform="translate(427.88 -130.66) rotate(55.17)"/><rect class="cls-19" x="395.41" y="506.72" width="1.67" height="10.05" transform="translate(460.54 -132.49) rotate(55.17)"/><rect class="cls-19" x="391.03" y="498.55" width="1.67" height="5.05" transform="translate(449.9 -133.47) rotate(55.17)"/><rect class="cls-19" x="409.11" y="526.38" width="1.67" height="10.07" transform="translate(482.56 -135.3) rotate(55.17)"/><rect class="cls-19" x="404.73" y="518.2" width="1.67" height="5.07" transform="translate(471.93 -136.28) rotate(55.17)"/><rect class="cls-19" x="422.81" y="546.04" width="1.67" height="10.09" transform="translate(504.59 -138.1) rotate(55.17)"/><rect class="cls-19" x="418.42" y="537.88" width="1.67" height="5.07" transform="translate(493.95 -139.08) rotate(55.17)"/><rect class="cls-19" x="436.51" y="565.7" width="1.67" height="10.1" transform="matrix(0.57, 0.82, -0.82, 0.57, 526.6, -140.91)"/><rect class="cls-19" x="432.12" y="557.54" width="1.67" height="5.1" transform="translate(515.97 -141.89) rotate(55.17)"/><rect class="cls-19" x="450.2" y="585.37" width="1.67" height="10.12" transform="translate(548.62 -143.72) rotate(55.17)"/><rect class="cls-19" x="445.82" y="577.2" width="1.67" height="5.12" transform="matrix(0.57, 0.82, -0.82, 0.57, 537.98, -144.7)"/><rect class="cls-19" x="463.9" y="605.03" width="1.67" height="10.14" transform="translate(570.64 -146.53) rotate(55.17)"/><rect class="cls-19" x="459.51" y="596.86" width="1.67" height="5.13" transform="translate(560 -147.51) rotate(55.17)"/><path class="cls-8" d="M328.53,513.47a2.25,2.25,0,0,1-2.23-2c0-.2-2.94-20.61-13.58-37.3a2.26,2.26,0,1,1,3.81-2.43c11.19,17.54,14.13,38.25,14.25,39.12a2.27,2.27,0,0,1-1.94,2.55Z" transform="translate(-129.46 -26.69)"/><path class="cls-22" d="M389.64,511.92c-13.06-23.1-33.15-21.1-44.2-15.07a55.41,55.41,0,0,1-19.63,6.45,55.44,55.44,0,0,1-19.62-6.45c-11.05-6-31.15-8-44.21,15.07s8.54,104.49,40.19,108h13.06c1.4,0,3.19-.08,5.21-.14a.52.52,0,0,0,.38.14c1.68-.14,3.36-.2,5-.22s3.31.08,5,.22a.53.53,0,0,0,.38-.14c2,.06,3.81.14,5.2.14h13.06C381.1,616.41,402.7,535,389.64,511.92Z" transform="translate(-129.46 -26.69)"/><path class="cls-8" d="M271.94,516.68a.59.59,0,0,1-.22,0,.52.52,0,0,1-.26-.69c.05-.11,5-11.06,17.13-13.79a.53.53,0,0,1,.63.4.52.52,0,0,1-.4.62c-11.59,2.62-16.36,13.09-16.4,13.2A.54.54,0,0,1,271.94,516.68Z" transform="translate(-129.46 -26.69)"/><path class="cls-8" d="M274.89,521.56a.57.57,0,0,1-.22,0,.52.52,0,0,1-.26-.69c0-.11,5-11.06,17.13-13.79a.52.52,0,0,1,.63.39.53.53,0,0,1-.4.63c-11.59,2.61-16.36,13.09-16.4,13.19A.52.52,0,0,1,274.89,521.56Z" transform="translate(-129.46 -26.69)"/><path class="cls-15" d="M369.2,494.07c-21.64,29.92-63.37,81.49-99.64,90.59,7.92,18.73,19.39,33.8,32.61,35.27h13.06c1.4,0,3.19-.08,5.21-.14a.52.52,0,0,0,.38.14c1.68-.14,3.36-.2,5-.22s3.31.08,5,.22a.53.53,0,0,0,.38-.14c2,.06,3.81.14,5.2.14h13.06c31.65-3.52,53.25-84.9,40.19-108C383.76,501.52,376.46,496.21,369.2,494.07Z" transform="translate(-129.46 -26.69)"/><ellipse class="cls-23" cx="363.73" cy="514.72" rx="6.5" ry="13.6" transform="translate(-393.35 545.66) rotate(-60)"/><path class="cls-8" d="M315.23,620.46H302.11c-13.33-1.48-23.3-15.81-29.32-27.58-14.21-27.78-19.58-66.49-11.26-81.2,5.85-10.35,13.87-16.83,23.21-18.72a32.58,32.58,0,0,1,21.7,3.44,54.34,54.34,0,0,0,19.43,6.38c.07,0,6.14.75,14.08-3.85a.51.51,0,0,1,.71.19.53.53,0,0,1-.19.72c-8.27,4.79-14.47,4-14.73,4a55.55,55.55,0,0,1-19.8-6.51c-10-5.43-30.34-8.41-43.5,14.87-3.91,6.91-4.86,19.86-2.6,35.53a148.51,148.51,0,0,0,13.89,44.69c8.33,16.28,18.44,25.88,28.47,27h13a.52.52,0,0,1,.53.52A.53.53,0,0,1,315.23,620.46Z" transform="translate(-129.46 -26.69)"/><path class="cls-8" d="M158.82,619.43a.52.52,0,0,1-.52-.52V595.5a5.6,5.6,0,0,1,5.59-5.6H272.17a.52.52,0,0,1,.52.53.52.52,0,0,1-.52.52H163.89a4.55,4.55,0,0,0-4.54,4.55v23.41A.52.52,0,0,1,158.82,619.43Z" transform="translate(-129.46 -26.69)"/><path class="cls-20" d="M851.89,174.77A87.14,87.14,0,1,0,702.76,236h0s26.37,28.2,35.27,58.94c0,0,15.23,5.17,26.72,5.46,11.49-.29,26.72-5.46,26.72-5.46,8.9-30.74,35.27-58.94,35.27-58.94h0A86.88,86.88,0,0,0,851.89,174.77Z" transform="translate(-129.46 -26.69)"/><path class="cls-11" d="M764.73,346.14h0a13.54,13.54,0,0,1-13.54-13.54h27.08A13.54,13.54,0,0,1,764.73,346.14Z" transform="translate(-129.46 -26.69)"/><path class="cls-11" d="M606.22,261.3h58.1a0,0,0,0,1,0,0v24.83a23.48,23.48,0,0,1-23.48,23.48H629.7a23.48,23.48,0,0,1-23.48-23.48V261.3A0,0,0,0,1,606.22,261.3Z"/><path class="cls-24" d="M851.89,174.77a86.69,86.69,0,0,0-14.55-48.21c-25.48,62.79-66.13,105-124.68,121.41,7.38,9.67,17.15,24.23,23.06,40h58.06c10.44-27.92,33-52,33-52h0A86.88,86.88,0,0,0,851.89,174.77Z" transform="translate(-129.46 -26.69)"/><path class="cls-19" d="M779,288.33l-2.5-.68c.08-.3,8.21-30.18,13.85-60.78,9.78-53.1,4.15-64.36-.07-66.35s-7.71-1.67-10.09,1.08c-.17.2-.34.42-.5.64a16.14,16.14,0,0,1,7.92,11.34c1,6.16-1.8,12.32-6.15,13.72-1.06.34-3.08.51-4.84-2.14-2.79-4.22-3.66-14.75-.54-21.78a28.75,28.75,0,0,0-10.82-1.87h-2.51a28.75,28.75,0,0,0-10.82,1.87c3.12,7,2.25,17.56-.54,21.78-1.75,2.65-3.78,2.48-4.84,2.14-4.35-1.4-7.11-7.56-6.14-13.72a16.11,16.11,0,0,1,7.91-11.34,7.84,7.84,0,0,0-.5-.64c-2.37-2.75-5.77-3.11-10.09-1.08s-9.84,13.25-.06,66.35c5.63,30.6,13.76,60.48,13.84,60.78l-2.49.68c-.09-.3-8.24-30.27-13.89-61-7.81-42.39-7.32-65,1.5-69.17,6.85-3.22,10.93-.83,13.15,1.73.31.36.6.75.88,1.15a30.6,30.6,0,0,1,12.09-2.14h2.51a30.83,30.83,0,0,1,12.1,2.14,12.38,12.38,0,0,1,.87-1.15c2.22-2.56,6.31-4.95,13.15-1.73,8.82,4.15,9.32,26.78,1.51,69.17C787.22,258.06,779.07,288,779,288.33ZM749.6,164.52A13,13,0,0,0,743,174c-.84,5.38,1.59,10,4.39,10.86.26.08.95.31,1.89-1.11C751.61,180.12,752.24,170.59,749.6,164.52Zm28.8,0c-2.65,6.07-2,15.6.37,19.21.93,1.42,1.63,1.19,1.89,1.11,2.8-.9,5.23-5.48,4.38-10.86A13.06,13.06,0,0,0,778.4,164.52Z" transform="translate(-129.46 -26.69)"/><path class="cls-8" d="M735.26,288.6c-.69-2-1-2.71-1.69-4.31l-.38-.87c-10.88-25.4-30.7-46.76-30.9-47l-.07-.06a87.79,87.79,0,1,1,136-109.64l-1.08.71a86.49,86.49,0,1,0-133.94,108.1l.84.85H704c3.8,4.24,20.64,23.76,30.38,46.5l.37.87c.7,1.62,1,2.36,1.73,4.39Z" transform="translate(-129.46 -26.69)"/><path class="cls-8" d="M703.9,134.54l-1.24-.36c.06-.22,6.5-21.66,28.18-29.73l.45,1.21C710.24,113.5,704,134.33,703.9,134.54Z" transform="translate(-129.46 -26.69)"/><path class="cls-8" d="M707.89,142.29l-1.24-.36c.06-.21,6.51-21.66,28.18-29.72l.45,1.21C714.23,121.25,708,142.09,707.89,142.29Z" transform="translate(-129.46 -26.69)"/><path class="cls-8" d="M767.9,337h-6.34A26.56,26.56,0,0,1,735,310.42V287.35h58.74v1.29H736.33v21.78a25.26,25.26,0,0,0,25.23,25.24h6.34a25.05,25.05,0,0,0,17.69-7.25l.91.93A26.37,26.37,0,0,1,767.9,337Z" transform="translate(-129.46 -26.69)"/><path class="cls-8" d="M765.11,346.79c-12.59,0-14.41-12.21-14.43-12.34l1.28-.17c.07.47,1.75,11.49,13.57,11.22l0,1.29Z" transform="translate(-129.46 -26.69)"/><path class="cls-8" d="M824.5,223.55l-.77-1c11.5-8.53,13.31-22.78,13.33-22.92l1.28.15C838.33,199.89,836.46,214.67,824.5,223.55Z" transform="translate(-129.46 -26.69)"/><path class="cls-8" d="M822,217.34l-.77-1c8.38-6.22,9.7-16.61,9.71-16.71l1.29.15C832.14,200.19,830.8,210.78,822,217.34Z" transform="translate(-129.46 -26.69)"/><path class="cls-8" d="M733,299.61l0-1.3c.49,0,49.48-.64,65-6.42l.45,1.21C782.72,299,735,299.58,733,299.61Z" transform="translate(-129.46 -26.69)"/><path class="cls-8" d="M733,310.52l0-1.29c.53,0,53.69-1.06,63.63-6.39l.61,1.14C787,309.45,735.22,310.48,733,310.52Z" transform="translate(-129.46 -26.69)"/><path class="cls-8" d="M735.69,321.73v-1.3c.48,0,48.18-.5,61-7.11l.6,1.15C784.18,321.22,737.66,321.71,735.69,321.73Z" transform="translate(-129.46 -26.69)"/><path class="cls-20" d="M655.4,161.05h-.17l-30.83-2.63a1.94,1.94,0,1,1,.33-3.86l30.83,2.62a1.94,1.94,0,0,1-.16,3.87Z" transform="translate(-129.46 -26.69)"/><path class="cls-20" d="M671.35,111.93a1.9,1.9,0,0,1-1.09-.34L644.71,94.11a1.94,1.94,0,0,1,2.2-3.2l25.54,17.48a1.94,1.94,0,0,1-1.1,3.54Z" transform="translate(-129.46 -26.69)"/><path class="cls-20" d="M717.51,76.69a2,2,0,0,1-1.8-1.21L704.07,46.81a1.94,1.94,0,1,1,3.59-1.46L719.31,74a1.94,1.94,0,0,1-1.07,2.52A1.91,1.91,0,0,1,717.51,76.69Z" transform="translate(-129.46 -26.69)"/><path class="cls-20" d="M872.55,166.64a1.94,1.94,0,0,1-.13-3.87l30.88-2a1.94,1.94,0,1,1,.26,3.87l-30.88,2Z" transform="translate(-129.46 -26.69)"/><path class="cls-20" d="M857.53,117.22a1.94,1.94,0,0,1-1.06-3.56l25.87-17a1.94,1.94,0,1,1,2.12,3.24l-25.86,17A1.91,1.91,0,0,1,857.53,117.22Z" transform="translate(-129.46 -26.69)"/><path class="cls-20" d="M818,76.57a2.06,2.06,0,0,1-.76-.15,2,2,0,0,1-1-2.55l12.19-28.44A1.94,1.94,0,1,1,832,47L819.81,75.4A2,2,0,0,1,818,76.57Z" transform="translate(-129.46 -26.69)"/><path class="cls-20" d="M768.31,61.52h0a2,2,0,0,1-1.91-2l.48-30.95a1.94,1.94,0,0,1,1.94-1.91h0a1.94,1.94,0,0,1,1.91,2l-.48,31A1.94,1.94,0,0,1,768.31,61.52Z" transform="translate(-129.46 -26.69)"/><g class="cls-25"><ellipse class="cls-21" cx="805.29" cy="121.19" rx="10.2" ry="21.35" transform="translate(137.75 705.76) rotate(-57.2)"/></g><path class="cls-8" d="M197.3,338.16a1.06,1.06,0,0,1-1-.74c0-.08-.57-1.91-1.32-5.15a1,1,0,0,1,.78-1.26,1.05,1.05,0,0,1,1.26.78c.74,3.17,1.29,5,1.29,5a1,1,0,0,1-.7,1.31A1,1,0,0,1,197.3,338.16Z" transform="translate(-129.46 -26.69)"/><path class="cls-8" d="M193.94,322.58a1,1,0,0,1-1-.88c-.57-3.54-1-7.14-1.35-10.68a1,1,0,1,1,2.09-.2c.33,3.5.77,7.05,1.33,10.55a1.05,1.05,0,0,1-.87,1.2ZM192,301.29a1,1,0,0,1-1.05-1c0-1.09,0-2.19,0-3.26,0-2.53.07-5.06.21-7.51a1,1,0,1,1,2.09.11c-.13,2.42-.2,4.91-.2,7.4,0,1.05,0,2.14,0,3.22a1.05,1.05,0,0,1-1,1.07ZM193.2,280h-.15a1.06,1.06,0,0,1-.89-1.19,105.72,105.72,0,0,1,2.07-10.6,1,1,0,1,1,2,.51,104.36,104.36,0,0,0-2,10.39A1.06,1.06,0,0,1,193.2,280Zm95.38-11.29a1,1,0,0,1-.2-2.08,17.47,17.47,0,0,0,8.88-4.49,1.05,1.05,0,0,1,1.45,1.52,19.47,19.47,0,0,1-9.94,5Zm-10.59-.4a.84.84,0,0,1-.35-.07c-3.33-1.19-6.14-3.86-8.12-7.72a1,1,0,1,1,1.86-1c1.74,3.38,4.14,5.7,7,6.71a1.05,1.05,0,0,1-.35,2Zm-79.58-9a1.21,1.21,0,0,1-.37-.07,1,1,0,0,1-.61-1.35,82.54,82.54,0,0,1,4.45-9.87,1,1,0,1,1,1.85,1,81.56,81.56,0,0,0-4.34,9.62A1.05,1.05,0,0,1,198.41,259.25Zm105.12-4.37a1,1,0,0,1-.33,0,1.06,1.06,0,0,1-.67-1.33,31.2,31.2,0,0,0,1.53-9.91v-.28a1,1,0,0,1,1-1.06h0a1,1,0,0,1,1,1.05v.29a33.37,33.37,0,0,1-1.63,10.58A1.05,1.05,0,0,1,303.53,254.88Zm-36-4.08a1.07,1.07,0,0,1-1.05-.93,46.74,46.74,0,0,1-.27-5.1,52.59,52.59,0,0,1,.32-5.81,1.05,1.05,0,1,1,2.09.23,50.81,50.81,0,0,0-.32,5.58,42.4,42.4,0,0,0,.27,4.86,1,1,0,0,1-.92,1.16Zm-59.09-10.35a1,1,0,0,1-.62-.21,1,1,0,0,1-.23-1.46,73.89,73.89,0,0,1,7-8.26,1,1,0,0,1,1.48,0,1.06,1.06,0,0,1,0,1.49,71.51,71.51,0,0,0-6.82,8A1.07,1.07,0,0,1,208.48,240.45Zm95.11-6.66a1.05,1.05,0,0,1-1-.77,39.24,39.24,0,0,0-4.05-9.57,1.05,1.05,0,0,1,1.81-1.07,41.93,41.93,0,0,1,4.27,10.08,1,1,0,0,1-.73,1.29A1,1,0,0,1,303.59,233.79Zm-33.89-4.15a1,1,0,0,1-.29,0,1,1,0,0,1-.72-1.3,74.9,74.9,0,0,1,3.76-10.17,1,1,0,0,1,1.39-.52,1,1,0,0,1,.52,1.39,72.8,72.8,0,0,0-3.65,9.88A1,1,0,0,1,269.7,229.64Zm-46.3-4.43a1.07,1.07,0,0,1-.83-.4,1.06,1.06,0,0,1,.18-1.47,88.2,88.2,0,0,1,8.91-6.15,1,1,0,1,1,1.08,1.8,86.63,86.63,0,0,0-8.69,6A1.06,1.06,0,0,1,223.4,225.21Zm69.15-9.36a1.06,1.06,0,0,1-.67-.24,31,31,0,0,0-8.94-5.1,1.05,1.05,0,1,1,.73-2,33.25,33.25,0,0,1,9.55,5.45,1.05,1.05,0,0,1-.67,1.86Zm-50.87-1.65a1,1,0,0,1-.42-2,76.56,76.56,0,0,1,10.19-3.69,1,1,0,0,1,.57,2,75.77,75.77,0,0,0-9.91,3.6A1.07,1.07,0,0,1,241.68,214.2Zm36.81-4a1,1,0,0,1-.56-.16,1.05,1.05,0,0,1-.33-1.45,87.27,87.27,0,0,1,6.33-8.77,1.05,1.05,0,0,1,1.63,1.33,82.74,82.74,0,0,0-6.18,8.56A1,1,0,0,1,278.49,210.21Zm-16.28-1.76a1,1,0,0,1-1-.93,1.05,1.05,0,0,1,.92-1.16,53.17,53.17,0,0,1,10.89-.17,1,1,0,0,1,.95,1.13,1,1,0,0,1-1.14,1,51.13,51.13,0,0,0-10.46.17ZM292,193.72a1,1,0,0,1-.71-1.82,70.54,70.54,0,0,1,8.5-6.74A1,1,0,0,1,301,186.9a68.84,68.84,0,0,0-8.24,6.54A1.06,1.06,0,0,1,292,193.72Zm17.61-12a1,1,0,0,1-.47-2,97.45,97.45,0,0,1,9.92-4.3,1.05,1.05,0,0,1,.73,2,96.51,96.51,0,0,0-9.71,4.2A1,1,0,0,1,309.64,181.68Zm20-7.49a1,1,0,0,1-.27-2.06c3.37-.91,6.91-1.72,10.51-2.39a1.05,1.05,0,0,1,1.23.84,1,1,0,0,1-.84,1.22c-3.55.67-7,1.46-10.36,2.35A.84.84,0,0,1,329.65,174.19Zm21-4a1.05,1.05,0,0,1-.12-2.1c3.53-.41,7.14-.71,10.73-.9a1.05,1.05,0,1,1,.11,2.1c-3.55.18-7.12.48-10.6.89Z" transform="translate(-129.46 -26.69)"/><path class="cls-8" d="M377.35,169.31h-.08s-1.94-.14-5.18-.19a1,1,0,1,1,0-2.09h0c3.31,0,5.22.19,5.3.19a1.06,1.06,0,0,1,1,1.13A1,1,0,0,1,377.35,169.31Z" transform="translate(-129.46 -26.69)"/><path class="cls-26" d="M391.81,178.93l5.92-6.79s29.41-3.19,29.82-3.39l15.52-7.8-19-1.1L393,164.32Z" transform="translate(-129.46 -26.69)"/><polygon class="cls-27" points="256.53 122.43 313.61 134.26 263.57 137.63 256.53 122.43"/><polygon class="cls-27" points="268.27 145.45 275.65 161.63 313.61 134.26 268.27 145.45"/><path class="cls-3" d="M715.84,572.58s9.64,24.26,1.55,42.61l185.34,1.55,17.1-1.55,15.07-9.34v-14.3l-4.19-11.81L917,572.58Z" transform="translate(-129.46 -26.69)"/><path class="cls-18" d="M911.41,619.1H711.17a2.36,2.36,0,0,1,0-4.72H911.41c12.09,0,21.92-9.12,21.92-20.34s-9.83-20.34-21.92-20.34H711.17a2.36,2.36,0,0,1,0-4.72H911.41c14.69,0,26.64,11.24,26.64,25.06S926.1,619.1,911.41,619.1Z" transform="translate(-129.46 -26.69)"/><path class="cls-28" d="M816.82,594.57H718.56A.53.53,0,0,1,718,594a.52.52,0,0,1,.53-.52h98.26a.52.52,0,0,1,.53.52A.53.53,0,0,1,816.82,594.57Z" transform="translate(-129.46 -26.69)"/><path class="cls-28" d="M926.13,594.57H830.66a.52.52,0,0,1-.52-.53.52.52,0,0,1,.52-.52h95.47a.52.52,0,0,1,.52.52A.52.52,0,0,1,926.13,594.57Z" transform="translate(-129.46 -26.69)"/><path class="cls-28" d="M923.56,604h-49a.52.52,0,0,1-.52-.53.52.52,0,0,1,.52-.52h49a.52.52,0,0,1,.53.52A.53.53,0,0,1,923.56,604Z" transform="translate(-129.46 -26.69)"/><path class="cls-28" d="M867.39,604H718.56a.53.53,0,0,1-.53-.53.52.52,0,0,1,.53-.52H867.39a.52.52,0,0,1,.53.52A.53.53,0,0,1,867.39,604Z" transform="translate(-129.46 -26.69)"/><path class="cls-3" d="M933,522.92s-9.64,24.25-1.55,42.6l-185.33,1.56L729,565.52l-15.07-9.34V541.89l4.19-11.82,13.68-7.15Z" transform="translate(-129.46 -26.69)"/><path class="cls-16" d="M737.39,569.44H937.63a2.37,2.37,0,0,0,0-4.73H737.39c-12.08,0-21.91-9.12-21.91-20.34S725.31,524,737.39,524H937.63a2.37,2.37,0,0,0,0-4.73H737.39c-14.69,0-26.64,11.25-26.64,25.06S722.7,569.44,737.39,569.44Z" transform="translate(-129.46 -26.69)"/><path class="cls-28" d="M930.24,544.9H832a.52.52,0,0,1-.53-.52.53.53,0,0,1,.53-.53h98.26a.53.53,0,0,1,.53.53A.52.52,0,0,1,930.24,544.9Z" transform="translate(-129.46 -26.69)"/><path class="cls-28" d="M818.14,544.9H722.68a.52.52,0,0,1-.53-.52.53.53,0,0,1,.53-.53h95.46a.53.53,0,0,1,.53.53A.52.52,0,0,1,818.14,544.9Z" transform="translate(-129.46 -26.69)"/><path class="cls-28" d="M774.22,554.3h-49a.52.52,0,0,1-.52-.52.52.52,0,0,1,.52-.53h49a.53.53,0,0,1,.53.53A.52.52,0,0,1,774.22,554.3Z" transform="translate(-129.46 -26.69)"/><path class="cls-28" d="M930.24,554.3H781.41a.52.52,0,0,1-.53-.52.53.53,0,0,1,.53-.53H930.24a.53.53,0,0,1,.53.53A.52.52,0,0,1,930.24,554.3Z" transform="translate(-129.46 -26.69)"/><path class="cls-3" d="M747.13,476.14s9,22.51,1.45,39.54l172,1.44,15.87-1.44,14-8.67V493.75l-3.89-11-12.7-6.64Z" transform="translate(-129.46 -26.69)"/><path class="cls-4" d="M928.64,519.31H742.8a2.19,2.19,0,0,1,0-4.38H928.64c11.21,0,20.34-8.47,20.34-18.88s-9.13-18.87-20.34-18.87H742.8a2.19,2.19,0,1,1,0-4.38H928.64c13.63,0,24.72,10.43,24.72,23.25S942.27,519.31,928.64,519.31Z" transform="translate(-129.46 -26.69)"/><path class="cls-28" d="M840.85,496.58H749.66a.53.53,0,0,1-.53-.53.52.52,0,0,1,.53-.52h91.19a.52.52,0,0,1,.53.52A.53.53,0,0,1,840.85,496.58Z" transform="translate(-129.46 -26.69)"/><path class="cls-28" d="M942.3,496.58H853.7a.53.53,0,0,1-.53-.53.52.52,0,0,1,.53-.52h88.6a.52.52,0,0,1,.52.52A.52.52,0,0,1,942.3,496.58Z" transform="translate(-129.46 -26.69)"/><path class="cls-28" d="M939.92,505.3H894.46a.52.52,0,0,1-.53-.52.53.53,0,0,1,.53-.53h45.46a.52.52,0,0,1,.52.53A.52.52,0,0,1,939.92,505.3Z" transform="translate(-129.46 -26.69)"/><path class="cls-28" d="M939.92,487.85H749.66a.53.53,0,0,1-.53-.53.52.52,0,0,1,.53-.52H939.92a.52.52,0,0,1,.52.52A.52.52,0,0,1,939.92,487.85Z" transform="translate(-129.46 -26.69)"/><path class="cls-8" d="M937.63,570H737.39c-15,0-27.16-11.48-27.16-25.58s12.18-25.59,27.16-25.59H937.63a2.89,2.89,0,1,1,0,5.77.52.52,0,0,1-.53-.52.53.53,0,0,1,.53-.53,1.84,1.84,0,1,0,0-3.67H737.39c-14.4,0-26.11,11-26.11,24.54s11.71,24.53,26.11,24.53H937.63a1.84,1.84,0,1,0,0-3.67.53.53,0,0,1-.53-.53.52.52,0,0,1,.53-.52,2.89,2.89,0,1,1,0,5.77Z" transform="translate(-129.46 -26.69)"/><path class="cls-8" d="M928.64,519.84H742.8a2.72,2.72,0,0,1,0-5.43.52.52,0,1,1,0,1,1.67,1.67,0,0,0,0,3.34H928.64c13.34,0,24.2-10.2,24.2-22.74s-10.86-22.73-24.2-22.73H742.8a1.67,1.67,0,0,0,0,3.33.53.53,0,0,1,.53.53.52.52,0,0,1-.53.52,2.72,2.72,0,0,1,0-5.43H928.64c13.92,0,25.25,10.67,25.25,23.78S942.56,519.84,928.64,519.84Z" transform="translate(-129.46 -26.69)"/><path class="cls-8" d="M911.41,619.63H711.17a2.89,2.89,0,0,1,0-5.77.52.52,0,1,1,0,1,1.84,1.84,0,0,0,0,3.68H911.41c14.4,0,26.12-11,26.12-24.54s-11.72-24.54-26.12-24.54H711.17a1.84,1.84,0,0,0,0,3.68.52.52,0,0,1,.53.52.53.53,0,0,1-.53.53,2.89,2.89,0,0,1,0-5.78H911.41c15,0,27.17,11.48,27.17,25.59S926.39,619.63,911.41,619.63Z" transform="translate(-129.46 -26.69)"/><path class="cls-16" d="M771.49,584.63s-6.3,15.71-2.67,27.28l5.12-7.92a68.66,68.66,0,0,1,5.65,7.92s3.91-25.83,11.5-27.28Z" transform="translate(-129.46 -26.69)"/><path class="cls-26" d="M905.89,535s6.31,15.71,2.67,27.27l-5.12-7.91a67.3,67.3,0,0,0-5.64,7.91s-3.92-25.83-11.5-27.27Z" transform="translate(-129.46 -26.69)"/><path class="cls-11" d="M779.67,504.78s-6.31,15.71-2.67,27.28l5.12-7.92a67.84,67.84,0,0,1,5.64,7.92s3.92-25.83,11.5-27.28Z" transform="translate(-129.46 -26.69)"/><path class="cls-28" d="M923.56,585.16h-205a.53.53,0,0,1-.53-.53.52.52,0,0,1,.53-.52h205a.52.52,0,0,1,.53.52A.53.53,0,0,1,923.56,585.16Z" transform="translate(-129.46 -26.69)"/><path class="cls-28" d="M930.24,535.49h-205a.52.52,0,0,1-.52-.52.52.52,0,0,1,.52-.53h205a.53.53,0,0,1,.53.53A.52.52,0,0,1,930.24,535.49Z" transform="translate(-129.46 -26.69)"/><path class="cls-28" d="M887.79,505.3H749.66a.52.52,0,0,1-.53-.52.53.53,0,0,1,.53-.53H887.79a.52.52,0,0,1,.52.53A.52.52,0,0,1,887.79,505.3Z" transform="translate(-129.46 -26.69)"/><polygon class="cls-9" points="713.34 512.68 720.64 516.78 729.37 508.2 729.6 506.81 727.47 491.19 710.48 494.36 713.34 512.68"/><path class="cls-16" d="M855.27,543.93l-23.41,3.19a3.79,3.79,0,0,1-.53,0c-2.29-.38-1.76-1.88-1.76-1.88l10.26-8.48.08-1.05c.12-1.68,2.05-2.53,3.71-1.63l4.32,2.33s10.13.14,11.12-2.88l.92,7.37S861.06,543.11,855.27,543.93Z" transform="translate(-129.46 -26.69)"/><polygon class="cls-9" points="683.09 513.68 690.39 517.79 699.12 509.2 699.35 507.81 697.22 492.19 680.23 495.36 683.09 513.68"/><path class="cls-16" d="M825,544.93l-23.41,3.19a3.7,3.7,0,0,1-.53,0c-2.29-.38-1.76-1.88-1.76-1.88l10.26-8.48.08-1.05c.12-1.68,2.05-2.53,3.71-1.63l4.31,2.33s10.14.15,11.13-2.87l.92,7.36S830.81,544.11,825,544.93Z" transform="translate(-129.46 -26.69)"/><path class="cls-5" d="M869.81,476.68s29.2,1.37,37.31-.43,10.1-27.11.9-42.62-41.43,32.1-41.43,32.1Z" transform="translate(-129.46 -26.69)"/><path class="cls-6" d="M851.74,439.09s-40.66,6.32-41.84,11-4.56,54.84-2,76.23c0,0,15.49,1.06,22.9-.73l1.8-52.15,12.23-1.4,28-33.68Z" transform="translate(-129.46 -26.69)"/><path class="cls-5" d="M871.52,442s-31.48,8.89-32.66,13.6-4.54,49.45-2,70.84c0,0,16.66.95,24.07-.84l2-49.19,7.19.25L887.52,446Z" transform="translate(-129.46 -26.69)"/><path class="cls-29" d="M891,382s13.92.24,17.16,2.15,18,26.32,21.25,36.68c0,0-8.36,7.32-19.14,7.6l-2.59-4.88,1.48,10L881,442a46.29,46.29,0,0,1-29.19-.95l-2.93-1.08s0-47.51,8.53-52.53C864.94,382.92,881.32,380.57,891,382Z" transform="translate(-129.46 -26.69)"/><path class="cls-9" d="M873.56,358.69v13.45s-.19,4.55,3.78,5.12l-.74,6.06a4.73,4.73,0,0,0,3.24,5.1,12.27,12.27,0,0,0,3.76.58,7.58,7.58,0,0,0,7.38-5.11c.38-1.71-.75-9.85-.75-9.85l.13-4-.51-15.51Z" transform="translate(-129.46 -26.69)"/><path class="cls-20" d="M884.53,365.42a.16.16,0,0,0,.13-.06.18.18,0,0,0,0-.26s-2.63-2.7-5-.78a.19.19,0,0,0,0,.27.19.19,0,0,0,.26,0c2.11-1.7,4.41.64,4.51.74A.16.16,0,0,0,884.53,365.42Z" transform="translate(-129.46 -26.69)"/><path class="cls-20" d="M876.72,364.28a.19.19,0,0,0,.13-.33c-.08-.07-1.89-1.61-3-.64a.19.19,0,0,0,.25.29c.89-.76,2.51.62,2.53.63A.21.21,0,0,0,876.72,364.28Z" transform="translate(-129.46 -26.69)"/><circle cx="751.81" cy="339.49" r="0.57"/><circle cx="745.77" cy="338.92" r="0.57"/><path class="cls-20" d="M889.32,355.27l-3.17,4.49s-9.61,3.73-14.54-.69-3.41-6.54-2-8.75c.71-1.09,4.11-3.32,8.27-1.47,2.28,1,4-2,6.61-.48s5.78,4.14,5.43,5.18S889.32,355.27,889.32,355.27Z" transform="translate(-129.46 -26.69)"/><path class="cls-20" d="M889.13,353.38a5.64,5.64,0,0,1,5.59,4c1.22,4.21-.42,6.41-.46,7.67s.81,9.71-5.13,9.08l-1.61-14,2.07-5.56Z" transform="translate(-129.46 -26.69)"/><circle class="cls-9" cx="759.35" cy="339.29" r="3.41"/><path class="cls-13" d="M889.06,368.07A1.43,1.43,0,0,0,890.4,367a1.35,1.35,0,0,0-.54-1.56,1.6,1.6,0,0,0-1.79.06,1.53,1.53,0,0,1,.69-.84,2.07,2.07,0,0,1,1.51-.09.1.1,0,0,0,.12-.06.1.1,0,0,0-.06-.12,2.24,2.24,0,0,0-1.66.11,1.77,1.77,0,0,0-.87,1.24l-.09.33.24-.24a1.51,1.51,0,0,1,1.81-.23,1.16,1.16,0,0,1,.45,1.35,1.2,1.2,0,0,1-1.15.92h0a.12.12,0,0,0-.1.1.1.1,0,0,0,.1.09Z" transform="translate(-129.46 -26.69)"/><path class="cls-13" d="M886.57,373.39s-.27,7.61-9.77,8.34l.54-4.47S883.51,378.49,886.57,373.39Z" transform="translate(-129.46 -26.69)"/><path class="cls-8" d="M908.1,424.2a36,36,0,0,0,18.79-8.94l-.41-.4A35.25,35.25,0,0,1,908,423.63Z" transform="translate(-129.46 -26.69)"/><path class="cls-8" d="M850.92,527.05c7.36,0,10-1.11,10.11-1.16l.16-.08,1.94-49.47-3,1.43.25.51,2.19-1-1.88,48.18c-.8.27-4.61,1.37-13.63,1l0,.56C848.42,527,849.73,527.05,850.92,527.05Z" transform="translate(-129.46 -26.69)"/><path class="cls-8" d="M857.82,516.38c.79-3,1-32.59,1-33.84h-.57c0,.31-.23,30.74-1,33.71Z" transform="translate(-129.46 -26.69)"/><path class="cls-8" d="M828.56,474.59a39.6,39.6,0,0,1,8.92-1.39v-.57a40.58,40.58,0,0,0-9.08,1.42Z" transform="translate(-129.46 -26.69)"/><path class="cls-8" d="M820.16,526.94a50.57,50.57,0,0,0,10.67-1l.21,0,1.83-52.72L830.54,475l.36.44,1.36-1.09-1.77,51a52.38,52.38,0,0,1-10.88,1v.57Z" transform="translate(-129.46 -26.69)"/><path class="cls-8" d="M828.08,517.48c.78-4.58,0-35.56,0-36.88l-.56,0c0,.32.77,32.24,0,36.76Z" transform="translate(-129.46 -26.69)"/><polygon class="cls-30" points="737.58 425.33 749.48 418.79 734.12 415.95 737.58 425.33"/><path class="cls-11" d="M866.59,451.27c.2-.12,11.51-6.13,11.51-6.13l.17.71L867,452Z" transform="translate(-129.46 -26.69)"/><path class="cls-9" d="M856.17,444.47l3.22-5h0c1.77-2.86,4.63-6.62,7.62-7,4.86-.55,34.52-1.77,43.93-2.93,0,0-.65-1.13-.63-1.13s7.69-1.29,7.69-1.29l4.89-2.31,4.39-1.9c1.21,4.72,4.54,12.49,1.12,17.89-6.3,10-54.53,5.08-58.81,3.77l-3.94,4.27-.81,1.23a1.26,1.26,0,1,1-2.12-1.38l-.33.52a1.26,1.26,0,0,1-1.75.37h0a1.26,1.26,0,0,0-2.12-1.38,1.26,1.26,0,0,1-.37-1.75l.34-.51a1.27,1.27,0,0,1-1.75.37h0l-.07-.05h0l0,0h0a1.42,1.42,0,0,1-.2-.22A1.37,1.37,0,0,1,856.17,444.47Z" transform="translate(-129.46 -26.69)"/><path class="cls-8" d="M910.16,428.85h.18c9.58-.23,19.21-7.59,19.31-7.67l.18-.13-6.08-13.47-.52.24,5.89,13.05c-1.34,1-10,7.12-18.61,7.41L907.9,423l-.51.25Z" transform="translate(-129.46 -26.69)"/><path class="cls-13" d="M914.33,434.23a.16.16,0,0,0,.15,0,.19.19,0,0,0,0-.27l-3.45-4.44a.2.2,0,0,0-.27,0,.19.19,0,0,0,0,.27l3.45,4.44A.16.16,0,0,0,914.33,434.23Z" transform="translate(-129.46 -26.69)"/><path class="cls-13" d="M857.93,446.71a.2.2,0,0,0,.2-.07l4.52-6.2a.19.19,0,0,0,0-.27.19.19,0,0,0-.26,0l-4.52,6.21a.19.19,0,0,0,0,.26A.11.11,0,0,0,857.93,446.71Z" transform="translate(-129.46 -26.69)"/><path class="cls-13" d="M859.92,448.53a.23.23,0,0,0,.2-.08l4.31-6.4a.19.19,0,0,0-.32-.21l-4.31,6.4a.19.19,0,0,0,.05.26Z" transform="translate(-129.46 -26.69)"/><path class="cls-13" d="M862.31,449.68a.18.18,0,0,0,.2-.08l3.59-5.42a.19.19,0,0,0-.05-.26.2.2,0,0,0-.27.05l-3.58,5.42a.19.19,0,0,0,0,.27Z" transform="translate(-129.46 -26.69)"/><path class="cls-8" d="M882.31,477.21a226.6,226.6,0,0,1-23.23-1l.06-.56c.2,0,19.73,2.19,48.85,0l0,.57C898.26,477,889.57,477.21,882.31,477.21Z" transform="translate(-129.46 -26.69)"/><rect class="cls-8" x="849.95" y="412.79" width="24.14" height="0.57" transform="translate(292.47 1234.93) rotate(-88.19)"/><polygon class="cls-11" points="688.58 384.94 693.71 421.7 737.58 425.33 736.09 385.33 688.58 384.94"/><rect class="cls-8" x="904.42" y="401.71" width="0.57" height="28.31" transform="translate(-220.24 368.21) rotate(-23.48)"/><rect class="cls-8" x="907.73" y="422.01" width="0.57" height="7.88" transform="translate(-185.77 123.58) rotate(-9.18)"/><path class="cls-13" d="M878.7,370a.11.11,0,0,0,.09-.07.1.1,0,0,0-.06-.12l-1.9-.63.6-4.47a.09.09,0,0,0-.08-.1.09.09,0,0,0-.11.08l-.62,4.62,2,.68Z" transform="translate(-129.46 -26.69)"/><path class="cls-31" d="M880.17,371.86l-3.75-.1s.46,1.53,1.83,1.57A2.21,2.21,0,0,0,880.17,371.86Z" transform="translate(-129.46 -26.69)"/><circle class="cls-14" cx="711.51" cy="402.16" r="1.67"/><circle class="cls-20" cx="430.83" cy="82.56" r="7.95"/><circle class="cls-20" cx="450.89" cy="101.23" r="3.46"/><circle class="cls-20" cx="225.79" cy="189.05" r="7.95"/><circle class="cls-20" cx="158.02" cy="299.7" r="7.95"/><circle class="cls-20" cx="207.12" cy="219.14" r="3.46"/><circle class="cls-20" cx="103.39" cy="279.99" r="3.46"/><circle class="cls-20" cx="492.03" cy="207.03" r="7.95"/><circle class="cls-20" cx="461.61" cy="220.17" r="3.46"/><circle class="cls-20" cx="519.35" cy="244.72" r="6.22"/><circle class="cls-20" cx="831.24" cy="320.1" r="7.95"/><circle class="cls-20" cx="677.37" cy="359.52" r="7.95"/><circle class="cls-20" cx="800.81" cy="333.24" r="3.46"/><circle class="cls-20" cx="697.08" cy="324.25" r="3.46"/><circle class="cls-20" cx="858.55" cy="357.79" r="6.22"/><polygon class="cls-3" points="468.18 296.24 468.18 460.14 590.23 460.14 590.23 323.21 563.95 296.24 468.18 296.24"/><polygon class="cls-28" points="590.23 323.26 564.11 296.24 564.11 323.26 590.23 323.26"/><path class="cls-28" d="M681.66,343.34H628.41A1.38,1.38,0,0,1,627,342h0a1.39,1.39,0,0,1,1.39-1.39h53.25A1.38,1.38,0,0,1,683,342h0A1.38,1.38,0,0,1,681.66,343.34Z" transform="translate(-129.46 -26.69)"/><path class="cls-28" d="M688.92,354.06H621.15a1.39,1.39,0,0,1-1.39-1.39h0a1.38,1.38,0,0,1,1.39-1.38h67.77a1.38,1.38,0,0,1,1.38,1.38h0A1.38,1.38,0,0,1,688.92,354.06Z" transform="translate(-129.46 -26.69)"/><path class="cls-28" d="M706.9,379.64H608.7a1.38,1.38,0,0,1-1.38-1.38h0a1.38,1.38,0,0,1,1.38-1.38h98.2a1.38,1.38,0,0,1,1.38,1.38h0A1.38,1.38,0,0,1,706.9,379.64Z" transform="translate(-129.46 -26.69)"/><path class="cls-28" d="M706.9,391.75H608.7a1.38,1.38,0,0,1-1.38-1.39h0A1.38,1.38,0,0,1,608.7,389h98.2a1.38,1.38,0,0,1,1.38,1.38h0A1.38,1.38,0,0,1,706.9,391.75Z" transform="translate(-129.46 -26.69)"/><path class="cls-28" d="M706.9,403.85H608.7a1.38,1.38,0,0,1-1.38-1.38h0a1.38,1.38,0,0,1,1.38-1.39h98.2a1.38,1.38,0,0,1,1.38,1.39h0A1.38,1.38,0,0,1,706.9,403.85Z" transform="translate(-129.46 -26.69)"/><path class="cls-28" d="M706.9,428.05H608.7a1.38,1.38,0,0,1-1.38-1.38h0a1.38,1.38,0,0,1,1.38-1.38h98.2a1.38,1.38,0,0,1,1.38,1.38h0A1.38,1.38,0,0,1,706.9,428.05Z" transform="translate(-129.46 -26.69)"/><path class="cls-28" d="M706.9,440.15H608.7a1.38,1.38,0,0,1-1.38-1.38h0a1.38,1.38,0,0,1,1.38-1.38h98.2a1.38,1.38,0,0,1,1.38,1.38h0A1.38,1.38,0,0,1,706.9,440.15Z" transform="translate(-129.46 -26.69)"/><path class="cls-28" d="M706.9,471.27H608.7a1.38,1.38,0,0,1-1.38-1.38h0a1.38,1.38,0,0,1,1.38-1.38h98.2a1.38,1.38,0,0,1,1.38,1.38h0A1.38,1.38,0,0,1,706.9,471.27Z" transform="translate(-129.46 -26.69)"/><path class="cls-8" d="M476,618.38l.37.54.22.51h1.44L347.11,431.53a.52.52,0,0,0-.73-.13.54.54,0,0,0-.13.73l129.8,186.25Z" transform="translate(-129.46 -26.69)"/><rect class="cls-8" y="592.22" width="901.08" height="2.77"/></g></g></svg>