<?xml version="1.0" encoding="UTF-8"?>
<svg xmlns="http://www.w3.org/2000/svg" xmlns:xlink="http://www.w3.org/1999/xlink" viewBox="0 0 48 48" width="48px" height="48px">
<g id="surface3141412">
<path style=" stroke:none;fill-rule:nonzero;fill:rgb(100%,100%,100%);fill-opacity:1;" d="M 6 10 C 5.277344 9.988281 4.609375 10.367188 4.246094 10.992188 C 3.878906 11.613281 3.878906 12.386719 4.246094 13.007812 C 4.609375 13.632812 5.277344 14.011719 6 14 L 42 14 C 42.722656 14.011719 43.390625 13.632812 43.753906 13.007812 C 44.121094 12.386719 44.121094 11.613281 43.753906 10.992188 C 43.390625 10.367188 42.722656 9.988281 42 10 Z M 6 22 C 5.277344 21.988281 4.609375 22.367188 4.246094 22.992188 C 3.878906 23.613281 3.878906 24.386719 4.246094 25.007812 C 4.609375 25.632812 5.277344 26.011719 6 26 L 42 26 C 42.722656 26.011719 43.390625 25.632812 43.753906 25.007812 C 44.121094 24.386719 44.121094 23.613281 43.753906 22.992188 C 43.390625 22.367188 42.722656 21.988281 42 22 Z M 6 34 C 5.277344 33.988281 4.609375 34.367188 4.246094 34.992188 C 3.878906 35.613281 3.878906 36.386719 4.246094 37.007812 C 4.609375 37.632812 5.277344 38.011719 6 38 L 42 38 C 42.722656 38.011719 43.390625 37.632812 43.753906 37.007812 C 44.121094 36.386719 44.121094 35.613281 43.753906 34.992188 C 43.390625 34.367188 42.722656 33.988281 42 34 Z M 6 34 "/>
</g>
</svg>
